<svg width="407" height="441" viewBox="0 0 407 441" fill="none" xmlns="http://www.w3.org/2000/svg">
<path opacity="0.05" fill-rule="evenodd" clip-rule="evenodd" d="M158.987 3.54979C144.692 10.7394 143.782 13.708 143.782 53.1647C143.782 75.6363 143.177 87.5127 142.034 87.5127C141.071 87.5127 130.404 81.8369 118.326 74.9022C87.1037 56.9704 83.7559 55.4464 75.5938 55.4464C53.8827 55.4464 41.1285 81.0167 54.3743 97.9899C62.0854 107.87 159.196 162.161 169.158 162.161C181.934 162.161 190.381 156.469 195.419 144.466C199.685 134.297 199.18 26.8771 194.822 17.4733C187.548 1.78108 173.418 -3.70899 158.987 3.54979ZM262.39 3.54979C245.937 11.8246 245.055 16.3712 245.796 89.2003C246.401 148.68 246.584 149.622 259.142 158.116C271.866 166.721 278.753 164.372 333.636 132.692C393.079 98.3797 397.105 94.606 393.674 76.3975C388.838 50.7327 369.342 49.2104 330.7 71.4795C315.4 80.2978 302.554 87.5127 302.154 87.5127C301.756 87.5127 301.395 73.6516 301.354 56.7122C301.257 16.8404 298.986 9.94784 283.63 2.92702C274.778 -1.12007 271.484 -1.02387 262.39 3.54979ZM14.9338 143.629C0.355708 150.992 -4.01263 168.585 5.34785 182.238C8.29398 186.535 42.8559 208.347 64.9586 219.855C67.1674 221.006 66.3588 221.543 35.2939 239.576C7.26504 255.849 4.28502 258.524 1.13379 270.251C-0.702034 277.085 -0.512201 278.506 3.22046 285.923C13.0674 305.492 27.9964 306.68 56.483 290.163C66.7385 284.215 88.8599 271.439 105.642 261.771C146.735 238.096 152.01 231.976 147.069 213.708C144.241 203.255 139.963 200.101 88.6904 170.669C28.3558 136.037 29.2881 136.378 14.9338 143.629ZM403.984 142.896C390.467 149.228 307.243 197.75 302.739 201.925C293.568 210.422 292.339 225.784 299.944 236.835C306.324 246.104 404.714 301.85 414.695 301.85C430.27 301.85 440.502 292.605 441.77 277.387C443.114 261.261 439.586 257.528 403.56 236.958C389.343 228.839 377.719 221.701 377.733 221.097C377.747 220.491 388.234 214.002 401.041 206.677C439.558 184.643 440.717 183.559 441.766 168.598C443.211 148.037 422.739 134.11 403.984 142.896ZM192.588 191.799C171.355 212.941 170.904 213.545 170.904 220.841C170.904 228.137 171.355 228.741 192.588 249.883C222.382 279.544 221.134 279.544 250.927 249.883C272.161 228.741 272.611 228.137 272.611 220.841C272.611 213.545 272.161 212.941 250.927 191.799C229.693 170.659 229.086 170.21 221.758 170.21C214.43 170.21 213.823 170.659 192.588 191.799ZM232.171 210.473C236.699 214.983 240.404 219.647 240.404 220.841C240.404 222.034 236.699 226.699 232.171 231.208C227.641 235.716 222.956 239.405 221.758 239.405C220.559 239.405 215.874 235.716 211.345 231.208C206.817 226.699 203.111 222.034 203.111 220.841C203.111 219.647 206.817 214.983 211.345 210.473C215.874 205.965 220.559 202.276 221.758 202.276C222.956 202.276 227.641 205.965 232.171 210.473ZM130.984 297.315C46.1699 345.831 46.7649 345.342 49.3347 364.413C52.9961 391.598 72.5155 393.482 112.702 370.526C128.451 361.53 141.887 354.169 142.56 354.169C143.233 354.169 143.782 369.625 143.782 388.517C143.782 428.311 144.635 430.987 159.694 438.42C174.143 445.552 193.758 435.755 196.961 419.805C199.569 406.828 198.121 303.84 195.231 296.649C186.16 274.082 171.331 274.236 130.984 297.315ZM258.615 284.178C246.518 292.362 246.401 292.983 245.796 352.481C245.5 381.72 245.74 409.593 246.332 414.419C249.814 442.828 282.872 450.847 297.099 426.734C300.198 421.482 300.674 417.172 301.429 387.624L302.276 354.415L328.551 369.5C364.787 390.304 373.549 391.804 386.054 379.354C404.623 360.867 396.418 345.762 354.825 321.856C339.908 313.283 317.456 300.336 304.931 293.088C278.397 277.733 270.411 276.197 258.615 284.178Z" fill="#FDFFFF"/>
</svg>
